<svg width="72" height="74" viewBox="0 0 72 74" fill="none" xmlns="http://www.w3.org/2000/svg">
<g filter="url(#filter0_d_184_1422)">
<path d="M61.1418 38.1212C60.0334 38.1212 59.1001 37.2754 58.9543 36.167C58.2543 29.5754 54.6959 23.5962 49.2126 19.8045C48.2209 19.1045 47.9876 17.7629 48.6584 16.7712C49.3584 15.7795 50.7293 15.5462 51.6918 16.217C58.2251 20.7379 62.4251 27.8545 63.2709 35.7004C63.3876 36.8962 62.5418 37.9754 61.3168 38.1212C61.2876 38.1212 61.2001 38.1212 61.1418 38.1212Z" fill="#AF937A"/>
<path d="M11.1794 38.2665C11.0919 38.2665 11.0335 38.2665 10.946 38.2665C9.75021 38.1207 8.87521 37.0415 8.99188 35.8457C9.77938 27.9999 13.9502 20.9124 20.396 16.3332C21.3877 15.6332 22.7585 15.8665 23.4585 16.8582C24.1585 17.8499 23.9252 19.2207 22.9335 19.9207C17.5085 23.7415 14.0085 29.7207 13.3377 36.3124C13.2502 37.4207 12.2877 38.2665 11.1794 38.2665Z" fill="#AF937A"/>
<path d="M36.1751 65.9464C31.8584 65.9464 27.7459 64.9547 23.8959 63.0297C22.8167 62.4756 22.3792 61.163 22.9334 60.0839C23.4876 59.0047 24.8001 58.5672 25.8792 59.1214C32.1792 62.3006 39.7626 62.3589 46.1209 59.2964C47.2001 58.7714 48.5126 59.238 49.0376 60.3172C49.5626 61.3964 49.0959 62.7089 48.0167 63.2339C44.2834 65.0422 40.3167 65.9464 36.1751 65.9464Z" fill="#AF937A"/>
<path d="M36.1752 24.6171C30.4877 24.6171 25.8794 20.0087 25.8794 14.3212C25.8794 8.63372 30.4877 4.02539 36.1752 4.02539C41.8627 4.02539 46.4711 8.63372 46.4711 14.3212C46.4711 20.0087 41.8336 24.6171 36.1752 24.6171ZM36.1752 8.42956C32.9086 8.42956 30.2544 11.0837 30.2544 14.3504C30.2544 17.6171 32.9086 20.2712 36.1752 20.2712C39.4419 20.2712 42.0961 17.6171 42.0961 14.3504C42.0961 11.0837 39.4127 8.42956 36.1752 8.42956Z" fill="#AF937A"/>
<path d="M15.0873 60.287C9.39984 60.287 4.7915 55.6786 4.7915 49.9911C4.7915 44.3328 9.39984 39.6953 15.0873 39.6953C20.7748 39.6953 25.3832 44.3036 25.3832 49.9911C25.3832 55.6495 20.7748 60.287 15.0873 60.287ZM15.0873 44.0703C11.8207 44.0703 9.1665 46.7245 9.1665 49.9911C9.1665 53.2578 11.8207 55.912 15.0873 55.912C18.354 55.912 21.0082 53.2578 21.0082 49.9911C21.0082 46.7245 18.354 44.0703 15.0873 44.0703Z" fill="#AF937A"/>
<path d="M56.9125 60.287C51.225 60.287 46.6167 55.6786 46.6167 49.9911C46.6167 44.3328 51.225 39.6953 56.9125 39.6953C62.6 39.6953 67.2084 44.3036 67.2084 49.9911C67.1792 55.6495 62.5709 60.287 56.9125 60.287ZM56.9125 44.0703C53.6459 44.0703 50.9917 46.7245 50.9917 49.9911C50.9917 53.2578 53.6459 55.912 56.9125 55.912C60.1792 55.912 62.8334 53.2578 62.8334 49.9911C62.8042 46.7245 60.1792 44.0703 56.9125 44.0703Z" fill="#AF937A"/>
</g>
<defs>
<filter id="filter0_d_184_1422" x="-3" y="0" width="78" height="78" filterUnits="userSpaceOnUse" color-interpolation-filters="sRGB">
<feFlood flood-opacity="0" result="BackgroundImageFix"/>
<feColorMatrix in="SourceAlpha" type="matrix" values="0 0 0 0 0 0 0 0 0 0 0 0 0 0 0 0 0 0 127 0" result="hardAlpha"/>
<feOffset dy="4"/>
<feGaussianBlur stdDeviation="2"/>
<feComposite in2="hardAlpha" operator="out"/>
<feColorMatrix type="matrix" values="0 0 0 0 0 0 0 0 0 0 0 0 0 0 0 0 0 0 0.25 0"/>
<feBlend mode="normal" in2="BackgroundImageFix" result="effect1_dropShadow_184_1422"/>
<feBlend mode="normal" in="SourceGraphic" in2="effect1_dropShadow_184_1422" result="shape"/>
</filter>
</defs>
</svg>
