<svg width="70" height="70" viewBox="0 0 70 70" fill="none" xmlns="http://www.w3.org/2000/svg">
<path d="M60.1418 38.1212C59.0334 38.1212 58.1001 37.2754 57.9543 36.167C57.2543 29.5754 53.6959 23.5962 48.2126 19.8045C47.2209 19.1045 46.9876 17.7629 47.6584 16.7712C48.3584 15.7795 49.7293 15.5462 50.6918 16.217C57.2251 20.7379 61.4251 27.8545 62.2709 35.7004C62.3876 36.8962 61.5418 37.9754 60.3168 38.1212C60.2876 38.1212 60.2001 38.1212 60.1418 38.1212Z" fill="#F3F6F4"/>
<path d="M10.1794 38.2665C10.0919 38.2665 10.0335 38.2665 9.94605 38.2665C8.75021 38.1207 7.87521 37.0415 7.99188 35.8457C8.77938 27.9999 12.9502 20.9124 19.396 16.3332C20.3877 15.6332 21.7585 15.8665 22.4585 16.8582C23.1585 17.8499 22.9252 19.2207 21.9335 19.9207C16.5085 23.7415 13.0085 29.7207 12.3377 36.3124C12.2502 37.4207 11.2877 38.2665 10.1794 38.2665Z" fill="#F3F6F4"/>
<path d="M35.1751 65.9464C30.8584 65.9464 26.7459 64.9547 22.8959 63.0297C21.8167 62.4756 21.3792 61.163 21.9334 60.0839C22.4876 59.0047 23.8001 58.5672 24.8792 59.1214C31.1792 62.3006 38.7626 62.3589 45.1209 59.2964C46.2001 58.7714 47.5126 59.238 48.0376 60.3172C48.5626 61.3964 48.0959 62.7089 47.0167 63.2339C43.2834 65.0422 39.3167 65.9464 35.1751 65.9464Z" fill="#F3F6F4"/>
<path d="M35.1752 24.6171C29.4877 24.6171 24.8794 20.0087 24.8794 14.3212C24.8794 8.63372 29.4877 4.02539 35.1752 4.02539C40.8627 4.02539 45.4711 8.63372 45.4711 14.3212C45.4711 20.0087 40.8336 24.6171 35.1752 24.6171ZM35.1752 8.42956C31.9086 8.42956 29.2544 11.0837 29.2544 14.3504C29.2544 17.6171 31.9086 20.2712 35.1752 20.2712C38.4419 20.2712 41.0961 17.6171 41.0961 14.3504C41.0961 11.0837 38.4127 8.42956 35.1752 8.42956Z" fill="#F3F6F4"/>
<path d="M14.0873 60.287C8.39984 60.287 3.7915 55.6786 3.7915 49.9911C3.7915 44.3328 8.39984 39.6953 14.0873 39.6953C19.7748 39.6953 24.3832 44.3036 24.3832 49.9911C24.3832 55.6495 19.7748 60.287 14.0873 60.287ZM14.0873 44.0703C10.8207 44.0703 8.1665 46.7245 8.1665 49.9911C8.1665 53.2578 10.8207 55.912 14.0873 55.912C17.354 55.912 20.0082 53.2578 20.0082 49.9911C20.0082 46.7245 17.354 44.0703 14.0873 44.0703Z" fill="#F3F6F4"/>
<path d="M55.9125 60.287C50.225 60.287 45.6167 55.6786 45.6167 49.9911C45.6167 44.3328 50.225 39.6953 55.9125 39.6953C61.6 39.6953 66.2084 44.3036 66.2084 49.9911C66.1792 55.6495 61.5709 60.287 55.9125 60.287ZM55.9125 44.0703C52.6459 44.0703 49.9917 46.7245 49.9917 49.9911C49.9917 53.2578 52.6459 55.912 55.9125 55.912C59.1792 55.912 61.8334 53.2578 61.8334 49.9911C61.8042 46.7245 59.1792 44.0703 55.9125 44.0703Z" fill="#F3F6F4"/>
</svg>
