<svg width="60" height="60" viewBox="0 0 60 60" fill="none" xmlns="http://www.w3.org/2000/svg">
<path d="M13.9248 56.75C8.07476 56.75 3.12476 51.8 3.12476 45.95V30.55C2.99976 23.25 5.69976 16.375 10.7498 11.225C15.7998 6.1 22.5748 3.25 29.8748 3.25C44.7748 3.25 56.8748 15.375 56.8748 30.25V45.65C56.8748 51.6 52.0248 56.45 46.0748 56.45C40.2248 56.45 35.2748 51.5 35.2748 45.65V38.625C35.2748 35 38.1248 32.15 41.7498 32.15C45.3748 32.15 48.2248 35 48.2248 38.625V46.2C48.2248 47.225 47.3748 48.075 46.3498 48.075C45.3248 48.075 44.4748 47.225 44.4748 46.2V38.625C44.4748 36.925 43.0998 35.9 41.7498 35.9C40.0498 35.9 39.0248 37.275 39.0248 38.625V45.65C39.0248 49.475 42.2498 52.7 46.0748 52.7C49.8998 52.7 53.1248 49.475 53.1248 45.65V30.25C53.1248 17.425 42.6998 7 29.8748 7C23.5998 7 17.7748 9.425 13.4248 13.85C9.07476 18.275 6.74976 24.2 6.87476 30.5V45.95C6.87476 49.775 10.0998 53 13.9248 53C17.7498 53 20.9748 49.775 20.9748 45.95V38.925C20.9748 37.225 19.5998 36.2 18.2498 36.2C16.5498 36.2 15.5248 37.575 15.5248 38.925V46.225C15.5248 47.25 14.6748 48.1 13.6498 48.1C12.6248 48.1 11.7748 47.25 11.7748 46.225V38.925C11.7748 35.3 14.6248 32.45 18.2498 32.45C21.8748 32.45 24.7248 35.3 24.7248 38.925V45.95C24.7248 51.8 19.7748 56.75 13.9248 56.75Z" fill="white"/>
</svg>
