<?xml version="1.0" standalone="no"?>
<!DOCTYPE svg PUBLIC "-//W3C//DTD SVG 1.0//EN" "http://www.w3.org/TR/2001/REC-SVG-20010904/DTD/svg10.dtd">
<svg xmlns="http://www.w3.org/2000/svg" xmlns:xlink="http://www.w3.org/1999/xlink" id="body_1" width="256" height="256">

<g transform="matrix(1 0 0 1 0 0)">
	<g transform="matrix(2.81 0 0 2.81 1.4065934 1.4065934)">
        <path transform="matrix(1 0 0 1 0 0)"  d="M73.771 19.39C 73.393005 18.989 72.867004 18.762 72.316 18.762L72.316 18.762L17.685 18.762C 17.133999 18.762 16.608 18.988998 16.23 19.39C 15.851999 19.789999 15.655999 20.328999 15.688 20.879L15.688 20.879L19.325 82.998C 19.555 86.924 22.816 90 26.75 90L26.75 90L63.249 90C 67.183 90 70.444 86.924 70.676 82.997L70.676 82.997L74.313 20.878002C 74.344 20.329 74.148 19.79 73.771 19.39z" stroke="none" fill="#CC3333" fill-rule="nonzero" />
        <path transform="matrix(1 0 0 1 0 0)"  d="M78.052 14.538L11.948 14.538C 10.844 14.538 9.948 13.642 9.948 12.538C 9.948 11.434 10.844 10.538 11.948 10.538L11.948 10.538L78.051994 10.538C 79.15599 10.538 80.051994 11.434 80.051994 12.538C 80.051994 13.642 79.156 14.538 78.052 14.538z" stroke="none" fill="#CC3333" fill-rule="nonzero" />
        <path transform="matrix(1 0 0 1 0 0)"  d="M57.711 14.538L32.289 14.538C 31.185001 14.538 30.289001 13.642 30.289001 12.538L30.289001 12.538L30.289001 7.36C 30.289001 3.301 33.591003 0 37.649002 0L37.649002 0L52.352 0C 56.41 0 59.711002 3.302 59.711002 7.36L59.711002 7.36L59.711002 12.538C 59.711 13.643 58.815 14.538 57.711 14.538zM34.289 10.538L55.711002 10.538L55.711002 7.36C 55.711002 5.507 54.204002 4 52.352 4L52.352 4L37.649 4C 35.795998 4 34.288998 5.507 34.288998 7.3599997L34.288998 7.3599997L34.288998 10.538z" stroke="none" fill="#CC3333" fill-rule="nonzero" />
        <path transform="matrix(1 0 0 1 0 0)"  d="M57.342 76.103C 57.302998 76.103 57.263 76.102 57.223 76.099C 56.12 76.034996 55.279 75.088 55.343998 73.986L55.343998 73.986L57.634 34.873C 57.697 33.77 58.627 32.921 59.746998 32.993C 60.85 33.057 61.690998 34.004 61.627 35.106L61.627 35.106L59.336 74.22C 59.274 75.282 58.393 76.103 57.342 76.103z" stroke="none" fill="#FFFFFF" fill-rule="nonzero" />
        <path transform="matrix(1 0 0 1 0 0)"  d="M32.658 76.103C 31.607 76.103 30.725 75.283 30.663 74.21999L30.663 74.21999L28.373001 35.105995C 28.309002 34.002995 29.150002 33.056995 30.253 32.992996C 31.341 32.930996 32.302002 33.769997 32.366 34.872997L32.366 34.872997L34.656002 73.98599C 34.72 75.08899 33.879 76.034996 32.776 76.09899C 32.737 76.102 32.698 76.103 32.658 76.103z" stroke="none" fill="#FFFFFF" fill-rule="nonzero" />
        <path transform="matrix(1 0 0 1 0 0)"  d="M45 76.103C 43.896 76.103 43 75.20699 43 74.103L43 74.103L43 34.989C 43 33.885 43.896 32.989 45 32.989C 46.104 32.989 47 33.885 47 34.989L47 34.989L47 74.103C 47 75.207 46.104 76.103 45 76.103z" stroke="none" fill="#FFFFFF" fill-rule="nonzero" />
	</g>
</g>
</svg>