<svg width="60" height="60" viewBox="0 0 60 60" fill="none" xmlns="http://www.w3.org/2000/svg">
<path d="M13.85 48.8C12.325 48.8 10.9 48.275 9.87497 47.3C8.57497 46.075 7.94997 44.225 8.17497 42.225L9.09997 34.125C9.27497 32.6 10.2 30.575 11.275 29.475L31.8 7.75C36.925 2.325 42.275 2.175 47.7 7.3C53.125 12.425 53.275 17.775 48.15 23.2L27.625 44.925C26.575 46.05 24.625 47.1 23.1 47.35L15.05 48.725C14.625 48.75 14.25 48.8 13.85 48.8ZM39.825 7.275C37.9 7.275 36.225 8.475 34.525 10.275L14 32.025C13.5 32.55 12.925 33.8 12.825 34.525L11.9 42.625C11.8 43.45 12 44.125 12.45 44.55C12.9 44.975 13.575 45.125 14.4 45L22.45 43.625C23.175 43.5 24.375 42.85 24.875 42.325L45.4 20.6C48.5 17.3 49.625 14.25 45.1 10C43.1 8.075 41.375 7.275 39.825 7.275Z" fill="white"/>
<path d="M43.3501 27.375C43.3001 27.375 43.2251 27.375 43.1751 27.375C35.3751 26.6 29.1001 20.675 27.9001 12.925C27.7501 11.9 28.4501 10.95 29.4751 10.775C30.5001 10.625 31.4501 11.325 31.6251 12.35C32.5751 18.4 37.4751 23.05 43.5751 23.65C44.6001 23.75 45.3501 24.675 45.2501 25.7C45.1251 26.65 44.3001 27.375 43.3501 27.375Z" fill="white"/>
<path d="M52.5 56.875H7.5C6.475 56.875 5.625 56.025 5.625 55C5.625 53.975 6.475 53.125 7.5 53.125H52.5C53.525 53.125 54.375 53.975 54.375 55C54.375 56.025 53.525 56.875 52.5 56.875Z" fill="white"/>
</svg>
