<svg width="25" height="25" viewBox="0 0 25 25" fill="none" xmlns="http://www.w3.org/2000/svg">
<circle cx="12.8757" cy="12.822" r="11.25" fill="#FFFBF4" stroke="#AF937A" stroke-width="1.5"/>
<path d="M13.4757 11.4068H13.3757V10.2756C13.3757 9.40486 13.4277 9.13982 13.5744 8.86952C13.6824 8.66958 13.8331 8.52095 14.0357 8.41441L16.2788 11.4822L16.2726 11.5068H13.4757V11.4068ZM13.4757 11.4068V10.2756C13.4757 9.40514 13.5288 9.1632 13.6623 8.91721L13.6624 8.91704C13.7609 8.73473 13.897 8.6003 14.0823 8.50292L14.0824 8.50284C14.3325 8.37078 14.5786 8.31842 15.4611 8.31842H16.3757H16.4757V8.21842V7.00173V6.92378L16.4001 6.90475C16.1289 6.83649 15.815 6.80308 15.4611 6.80308C14.2645 6.80308 13.8148 6.92625 13.36 7.16571M13.4757 11.4068H16.3757H16.5042L16.4727 11.5313L16.1393 12.8467L16.1202 12.9221H16.0424H13.4757M13.36 7.16571L13.4757 12.9221M13.36 7.16571C12.913 7.39914 12.5473 7.7598 12.3104 8.20109C12.0673 8.6504 11.9424 9.0947 11.9424 10.2756V11.4068H9.37573H9.27573V11.5068V12.8221V12.9221H9.37573H11.9424M13.36 7.16571L11.9424 12.9221M13.4757 12.9221V18.7412V18.8412H13.3757H12.0424H11.9424V18.7412V12.9221M13.4757 12.9221H11.9424" fill="#AF937A" stroke="#AF937A" stroke-width="0.2"/>
</svg>
