<svg width="70" height="70" viewBox="0 0 70 70" fill="none" xmlns="http://www.w3.org/2000/svg">
<path d="M23.3333 16.7715C22.1374 16.7715 21.1458 15.7798 21.1458 14.584V5.83398C21.1458 4.63815 22.1374 3.64648 23.3333 3.64648C24.5291 3.64648 25.5208 4.63815 25.5208 5.83398V14.584C25.5208 15.7798 24.5291 16.7715 23.3333 16.7715Z" fill="#F3F6F4"/>
<path d="M46.6667 16.7715C45.4709 16.7715 44.4792 15.7798 44.4792 14.584V5.83398C44.4792 4.63815 45.4709 3.64648 46.6667 3.64648C47.8626 3.64648 48.8542 4.63815 48.8542 5.83398V14.584C48.8542 15.7798 47.8626 16.7715 46.6667 16.7715Z" fill="#F3F6F4"/>
<path d="M43.7501 34.2715H20.4167C19.2209 34.2715 18.2292 33.2798 18.2292 32.084C18.2292 30.8882 19.2209 29.8965 20.4167 29.8965H43.7501C44.9459 29.8965 45.9376 30.8882 45.9376 32.084C45.9376 33.2798 44.9459 34.2715 43.7501 34.2715Z" fill="#F3F6F4"/>
<path d="M35.0001 45.9375H20.4167C19.2209 45.9375 18.2292 44.9458 18.2292 43.75C18.2292 42.5542 19.2209 41.5625 20.4167 41.5625H35.0001C36.1959 41.5625 37.1876 42.5542 37.1876 43.75C37.1876 44.9458 36.1959 45.9375 35.0001 45.9375Z" fill="#F3F6F4"/>
<path d="M43.75 66.3548H26.25C9.85833 66.3548 6.5625 58.6257 6.5625 46.1423V28.1465C6.5625 14.3215 11.2292 8.69232 23.2167 8.02148H46.6667C58.7708 8.69232 63.4375 14.3215 63.4375 28.1465V46.6673C63.4375 47.8632 62.4458 48.8548 61.25 48.8548C60.0542 48.8548 59.0625 47.8632 59.0625 46.6673V28.1465C59.0625 15.4298 54.8333 12.8632 46.55 12.3965H23.3333C15.1667 12.8632 10.9375 15.4298 10.9375 28.1465V46.1423C10.9375 57.3132 13.0667 61.9798 26.25 61.9798H43.75C44.9458 61.9798 45.9375 62.9715 45.9375 64.1673C45.9375 65.3632 44.9458 66.3548 43.75 66.3548Z" fill="#F3F6F4"/>
<path d="M43.75 66.3535C43.4583 66.3535 43.1958 66.2952 42.9042 66.1785C42.0875 65.8285 41.5625 65.041 41.5625 64.166V55.416C41.5625 48.3577 45.4417 44.4785 52.5 44.4785H61.25C62.125 44.4785 62.9417 45.0035 63.2625 45.8202C63.6125 46.6368 63.4083 47.5702 62.7958 48.2119L45.2958 65.7119C44.8875 66.1202 44.3333 66.3535 43.75 66.3535ZM52.5 48.8535C47.8917 48.8535 45.9375 50.8077 45.9375 55.416V58.8869L55.9708 48.8535H52.5Z" fill="#F3F6F4"/>
</svg>
