<svg width="70" height="70" viewBox="0 0 70 70" fill="none" xmlns="http://www.w3.org/2000/svg">
<mask id="path-1-outside-1_218_5229" maskUnits="userSpaceOnUse" x="4" y="4.01367" width="62" height="62" fill="black">
<rect fill="white" x="4" y="4.01367" width="62" height="62"/>
<path fill-rule="evenodd" clip-rule="evenodd" d="M19.9143 5.11933C16.1531 5.57247 12.6839 7.02559 10.0511 9.25063C8.12469 10.8621 6.86307 12.4947 6.00464 14.486C3.40335 20.4854 5.88036 27.6299 13.125 34.9959C17.1439 39.0851 23.8191 44.0016 30.0724 47.4766L31.5479 48.297V54.2437C31.5479 59.8306 31.532 60.2209 31.2704 60.7846C30.8653 61.6468 30.0807 62.3566 29.068 62.777C28.1908 63.1579 28.078 63.1755 26.3467 63.2142C24.0648 63.2646 23.9434 63.288 23.6645 63.7263C23.4723 64.0252 23.4636 64.1471 23.6082 64.4295C23.6968 64.6119 23.8471 64.7703 24.0417 64.8866C24.3929 65.039 45.6368 65.039 45.9879 64.8866C46.182 64.7699 46.3321 64.6116 46.4215 64.4295C46.566 64.1447 46.5573 64.0229 46.3666 63.7263C46.0862 63.288 45.9663 63.2646 43.6843 63.2142C41.9501 63.1755 41.8403 63.1579 40.9617 62.777C39.949 62.3566 39.1643 61.6468 38.7592 60.7846C38.4977 60.2268 38.4818 59.8294 38.4818 54.2296V48.2712L39.096 47.9465C43.5427 45.5943 50.0055 41.1864 53.614 38.0431C59.9988 32.482 63.3747 27.7061 64.6681 22.4016C65.0872 20.6823 65.1132 17.9422 64.7245 16.4784C63.9672 13.6257 62.4628 11.3309 59.9756 9.25063C56.4957 6.33235 51.8379 4.83102 46.8753 5.03143C45.5602 5.083 45.1512 5.1416 44.852 5.32209C44.7311 5.39292 44.6303 5.48394 44.5563 5.58901C44.4824 5.69409 44.437 5.81078 44.4233 5.93126C44.4096 6.05173 44.4279 6.17318 44.4769 6.28745C44.526 6.40171 44.6046 6.50614 44.7075 6.59371C45.0269 6.8703 45.0688 6.87382 46.7047 6.79998C48.53 6.69562 50.3634 6.86568 52.1125 7.3016C58.8108 9.01037 63.3154 14.3664 62.8428 20.0518C62.3515 25.9739 58.1634 31.9851 50.0228 38.4522C47.1325 40.7516 44.8202 42.3456 41.1553 44.5759L38.554 46.1581L38.5208 42.6022L38.4832 39.044L43.9401 34.6174L49.3971 30.1907H51.1515C52.8857 30.1907 52.9175 30.1907 53.2108 29.8825C53.601 29.4805 53.5895 29.2227 53.1617 28.8207C52.8322 28.5089 52.7383 28.489 51.4275 28.4503L50.0431 28.4105V27.3557C50.0431 26.3407 50.0272 26.2903 49.6095 25.9493C49.2598 25.6657 49.095 25.6106 48.7785 25.6703C48.0083 25.818 47.8796 26.0934 47.8796 27.5959V28.9601L43.1829 32.768L38.4861 36.5758V26.8482L40.7492 25.0093C42.7363 23.3955 43.0138 23.1248 43.0138 22.7919C43.0138 22.3606 42.4357 21.8649 41.9212 21.8649C41.716 21.8649 40.6293 22.6583 38.6407 24.2581C36.8415 25.7067 35.5163 26.6818 35.2836 26.7298C35.0405 26.7706 34.7878 26.7485 34.561 26.6665C34.3746 26.5892 32.9179 25.477 31.3239 24.196C29.3715 22.6255 28.3252 21.8649 28.1171 21.8649C27.6055 21.8649 27.0202 22.3594 27.0202 22.7919C27.0202 23.1248 27.2977 23.3955 29.2847 25.0093L31.5493 26.8482V36.5758L26.8525 32.768L22.1558 28.9601V27.5971C22.1558 26.0946 22.0271 25.8192 21.2554 25.6715C20.9404 25.6117 20.7756 25.6715 20.4245 25.9505C20.0025 26.2927 19.9909 26.3431 19.9909 27.3569V28.4117L18.605 28.4515C17.2942 28.4902 17.2003 28.5101 16.8708 28.8219C16.4373 29.2238 16.4373 29.4817 16.8217 29.8837C17.1107 30.1872 17.1512 30.1919 18.881 30.1919H20.6427L26.0823 34.6162L31.5233 39.0405L31.5869 40.0144C31.6375 40.8055 31.7068 41.0353 31.954 41.2357C32.1539 41.3835 32.4127 41.4683 32.6832 41.4745C32.9537 41.4808 33.218 41.4081 33.428 41.2697C33.7098 41.0622 33.7171 40.8934 33.7546 34.7158L33.7922 28.3753L34.1535 28.4292C34.7283 28.4996 35.3129 28.4996 35.8877 28.4292L36.249 28.3753L36.3212 44.6075C36.3906 60.2303 36.4036 60.8596 36.6681 61.3671C36.9051 61.7831 37.1789 62.1846 37.4875 62.5684L38.0323 63.2423H31.9438L32.3297 62.8321C32.6507 62.4505 32.933 62.0483 33.1737 61.6296L33.6361 60.8385L33.6752 52.433C33.7142 44.1258 33.7113 42.0315 33.4222 41.7971C33.0581 41.5017 32.3991 41.4912 31.967 41.7748C31.6779 41.96 31.6274 44.1282 31.5537 45.0564L31.4684 46.1358L29.753 45.1291C26.2603 43.1008 22.974 40.8484 19.9259 38.3936C15.0485 34.5166 11.9963 31.262 9.78374 27.5772C5.76619 20.8862 6.38761 14.8797 11.557 10.493C15.8072 6.88554 22.335 5.78386 28.1243 7.69773C29.8975 8.28373 31.3672 9.08421 32.9092 10.3066C33.7084 10.9395 34.4743 11.5067 34.6058 11.5653C35.129 11.7997 35.4455 11.6603 36.5582 10.7262C37.715 9.73118 39.054 8.88679 40.5281 8.22279C41.664 7.71883 41.8533 7.55709 41.8533 7.09767C41.8533 6.61363 41.4357 6.27727 40.8244 6.27727C39.9789 6.27727 37.645 7.44927 36.0134 8.70448L35.0134 9.46979L34.0119 8.70448C31.8803 7.07423 29.0868 5.89168 26.0534 5.32443C24.6255 5.06425 21.2381 4.94705 19.9143 5.11933Z"/>
</mask>
<path fill-rule="evenodd" clip-rule="evenodd" d="M19.9143 5.11933C16.1531 5.57247 12.6839 7.02559 10.0511 9.25063C8.12469 10.8621 6.86307 12.4947 6.00464 14.486C3.40335 20.4854 5.88036 27.6299 13.125 34.9959C17.1439 39.0851 23.8191 44.0016 30.0724 47.4766L31.5479 48.297V54.2437C31.5479 59.8306 31.532 60.2209 31.2704 60.7846C30.8653 61.6468 30.0807 62.3566 29.068 62.777C28.1908 63.1579 28.078 63.1755 26.3467 63.2142C24.0648 63.2646 23.9434 63.288 23.6645 63.7263C23.4723 64.0252 23.4636 64.1471 23.6082 64.4295C23.6968 64.6119 23.8471 64.7703 24.0417 64.8866C24.3929 65.039 45.6368 65.039 45.9879 64.8866C46.182 64.7699 46.3321 64.6116 46.4215 64.4295C46.566 64.1447 46.5573 64.0229 46.3666 63.7263C46.0862 63.288 45.9663 63.2646 43.6843 63.2142C41.9501 63.1755 41.8403 63.1579 40.9617 62.777C39.949 62.3566 39.1643 61.6468 38.7592 60.7846C38.4977 60.2268 38.4818 59.8294 38.4818 54.2296V48.2712L39.096 47.9465C43.5427 45.5943 50.0055 41.1864 53.614 38.0431C59.9988 32.482 63.3747 27.7061 64.6681 22.4016C65.0872 20.6823 65.1132 17.9422 64.7245 16.4784C63.9672 13.6257 62.4628 11.3309 59.9756 9.25063C56.4957 6.33235 51.8379 4.83102 46.8753 5.03143C45.5602 5.083 45.1512 5.1416 44.852 5.32209C44.7311 5.39292 44.6303 5.48394 44.5563 5.58901C44.4824 5.69409 44.437 5.81078 44.4233 5.93126C44.4096 6.05173 44.4279 6.17318 44.4769 6.28745C44.526 6.40171 44.6046 6.50614 44.7075 6.59371C45.0269 6.8703 45.0688 6.87382 46.7047 6.79998C48.53 6.69562 50.3634 6.86568 52.1125 7.3016C58.8108 9.01037 63.3154 14.3664 62.8428 20.0518C62.3515 25.9739 58.1634 31.9851 50.0228 38.4522C47.1325 40.7516 44.8202 42.3456 41.1553 44.5759L38.554 46.1581L38.5208 42.6022L38.4832 39.044L43.9401 34.6174L49.3971 30.1907H51.1515C52.8857 30.1907 52.9175 30.1907 53.2108 29.8825C53.601 29.4805 53.5895 29.2227 53.1617 28.8207C52.8322 28.5089 52.7383 28.489 51.4275 28.4503L50.0431 28.4105V27.3557C50.0431 26.3407 50.0272 26.2903 49.6095 25.9493C49.2598 25.6657 49.095 25.6106 48.7785 25.6703C48.0083 25.818 47.8796 26.0934 47.8796 27.5959V28.9601L43.1829 32.768L38.4861 36.5758V26.8482L40.7492 25.0093C42.7363 23.3955 43.0138 23.1248 43.0138 22.7919C43.0138 22.3606 42.4357 21.8649 41.9212 21.8649C41.716 21.8649 40.6293 22.6583 38.6407 24.2581C36.8415 25.7067 35.5163 26.6818 35.2836 26.7298C35.0405 26.7706 34.7878 26.7485 34.561 26.6665C34.3746 26.5892 32.9179 25.477 31.3239 24.196C29.3715 22.6255 28.3252 21.8649 28.1171 21.8649C27.6055 21.8649 27.0202 22.3594 27.0202 22.7919C27.0202 23.1248 27.2977 23.3955 29.2847 25.0093L31.5493 26.8482V36.5758L26.8525 32.768L22.1558 28.9601V27.5971C22.1558 26.0946 22.0271 25.8192 21.2554 25.6715C20.9404 25.6117 20.7756 25.6715 20.4245 25.9505C20.0025 26.2927 19.9909 26.3431 19.9909 27.3569V28.4117L18.605 28.4515C17.2942 28.4902 17.2003 28.5101 16.8708 28.8219C16.4373 29.2238 16.4373 29.4817 16.8217 29.8837C17.1107 30.1872 17.1512 30.1919 18.881 30.1919H20.6427L26.0823 34.6162L31.5233 39.0405L31.5869 40.0144C31.6375 40.8055 31.7068 41.0353 31.954 41.2357C32.1539 41.3835 32.4127 41.4683 32.6832 41.4745C32.9537 41.4808 33.218 41.4081 33.428 41.2697C33.7098 41.0622 33.7171 40.8934 33.7546 34.7158L33.7922 28.3753L34.1535 28.4292C34.7283 28.4996 35.3129 28.4996 35.8877 28.4292L36.249 28.3753L36.3212 44.6075C36.3906 60.2303 36.4036 60.8596 36.6681 61.3671C36.9051 61.7831 37.1789 62.1846 37.4875 62.5684L38.0323 63.2423H31.9438L32.3297 62.8321C32.6507 62.4505 32.933 62.0483 33.1737 61.6296L33.6361 60.8385L33.6752 52.433C33.7142 44.1258 33.7113 42.0315 33.4222 41.7971C33.0581 41.5017 32.3991 41.4912 31.967 41.7748C31.6779 41.96 31.6274 44.1282 31.5537 45.0564L31.4684 46.1358L29.753 45.1291C26.2603 43.1008 22.974 40.8484 19.9259 38.3936C15.0485 34.5166 11.9963 31.262 9.78374 27.5772C5.76619 20.8862 6.38761 14.8797 11.557 10.493C15.8072 6.88554 22.335 5.78386 28.1243 7.69773C29.8975 8.28373 31.3672 9.08421 32.9092 10.3066C33.7084 10.9395 34.4743 11.5067 34.6058 11.5653C35.129 11.7997 35.4455 11.6603 36.5582 10.7262C37.715 9.73118 39.054 8.88679 40.5281 8.22279C41.664 7.71883 41.8533 7.55709 41.8533 7.09767C41.8533 6.61363 41.4357 6.27727 40.8244 6.27727C39.9789 6.27727 37.645 7.44927 36.0134 8.70448L35.0134 9.46979L34.0119 8.70448C31.8803 7.07423 29.0868 5.89168 26.0534 5.32443C24.6255 5.06425 21.2381 4.94705 19.9143 5.11933Z" fill="#F3F6F4"/>
<path fill-rule="evenodd" clip-rule="evenodd" d="M19.9143 5.11933C16.1531 5.57247 12.6839 7.02559 10.0511 9.25063C8.12469 10.8621 6.86307 12.4947 6.00464 14.486C3.40335 20.4854 5.88036 27.6299 13.125 34.9959C17.1439 39.0851 23.8191 44.0016 30.0724 47.4766L31.5479 48.297V54.2437C31.5479 59.8306 31.532 60.2209 31.2704 60.7846C30.8653 61.6468 30.0807 62.3566 29.068 62.777C28.1908 63.1579 28.078 63.1755 26.3467 63.2142C24.0648 63.2646 23.9434 63.288 23.6645 63.7263C23.4723 64.0252 23.4636 64.1471 23.6082 64.4295C23.6968 64.6119 23.8471 64.7703 24.0417 64.8866C24.3929 65.039 45.6368 65.039 45.9879 64.8866C46.182 64.7699 46.3321 64.6116 46.4215 64.4295C46.566 64.1447 46.5573 64.0229 46.3666 63.7263C46.0862 63.288 45.9663 63.2646 43.6843 63.2142C41.9501 63.1755 41.8403 63.1579 40.9617 62.777C39.949 62.3566 39.1643 61.6468 38.7592 60.7846C38.4977 60.2268 38.4818 59.8294 38.4818 54.2296V48.2712L39.096 47.9465C43.5427 45.5943 50.0055 41.1864 53.614 38.0431C59.9988 32.482 63.3747 27.7061 64.6681 22.4016C65.0872 20.6823 65.1132 17.9422 64.7245 16.4784C63.9672 13.6257 62.4628 11.3309 59.9756 9.25063C56.4957 6.33235 51.8379 4.83102 46.8753 5.03143C45.5602 5.083 45.1512 5.1416 44.852 5.32209C44.7311 5.39292 44.6303 5.48394 44.5563 5.58901C44.4824 5.69409 44.437 5.81078 44.4233 5.93126C44.4096 6.05173 44.4279 6.17318 44.4769 6.28745C44.526 6.40171 44.6046 6.50614 44.7075 6.59371C45.0269 6.8703 45.0688 6.87382 46.7047 6.79998C48.53 6.69562 50.3634 6.86568 52.1125 7.3016C58.8108 9.01037 63.3154 14.3664 62.8428 20.0518C62.3515 25.9739 58.1634 31.9851 50.0228 38.4522C47.1325 40.7516 44.8202 42.3456 41.1553 44.5759L38.554 46.1581L38.5208 42.6022L38.4832 39.044L43.9401 34.6174L49.3971 30.1907H51.1515C52.8857 30.1907 52.9175 30.1907 53.2108 29.8825C53.601 29.4805 53.5895 29.2227 53.1617 28.8207C52.8322 28.5089 52.7383 28.489 51.4275 28.4503L50.0431 28.4105V27.3557C50.0431 26.3407 50.0272 26.2903 49.6095 25.9493C49.2598 25.6657 49.095 25.6106 48.7785 25.6703C48.0083 25.818 47.8796 26.0934 47.8796 27.5959V28.9601L43.1829 32.768L38.4861 36.5758V26.8482L40.7492 25.0093C42.7363 23.3955 43.0138 23.1248 43.0138 22.7919C43.0138 22.3606 42.4357 21.8649 41.9212 21.8649C41.716 21.8649 40.6293 22.6583 38.6407 24.2581C36.8415 25.7067 35.5163 26.6818 35.2836 26.7298C35.0405 26.7706 34.7878 26.7485 34.561 26.6665C34.3746 26.5892 32.9179 25.477 31.3239 24.196C29.3715 22.6255 28.3252 21.8649 28.1171 21.8649C27.6055 21.8649 27.0202 22.3594 27.0202 22.7919C27.0202 23.1248 27.2977 23.3955 29.2847 25.0093L31.5493 26.8482V36.5758L26.8525 32.768L22.1558 28.9601V27.5971C22.1558 26.0946 22.0271 25.8192 21.2554 25.6715C20.9404 25.6117 20.7756 25.6715 20.4245 25.9505C20.0025 26.2927 19.9909 26.3431 19.9909 27.3569V28.4117L18.605 28.4515C17.2942 28.4902 17.2003 28.5101 16.8708 28.8219C16.4373 29.2238 16.4373 29.4817 16.8217 29.8837C17.1107 30.1872 17.1512 30.1919 18.881 30.1919H20.6427L26.0823 34.6162L31.5233 39.0405L31.5869 40.0144C31.6375 40.8055 31.7068 41.0353 31.954 41.2357C32.1539 41.3835 32.4127 41.4683 32.6832 41.4745C32.9537 41.4808 33.218 41.4081 33.428 41.2697C33.7098 41.0622 33.7171 40.8934 33.7546 34.7158L33.7922 28.3753L34.1535 28.4292C34.7283 28.4996 35.3129 28.4996 35.8877 28.4292L36.249 28.3753L36.3212 44.6075C36.3906 60.2303 36.4036 60.8596 36.6681 61.3671C36.9051 61.7831 37.1789 62.1846 37.4875 62.5684L38.0323 63.2423H31.9438L32.3297 62.8321C32.6507 62.4505 32.933 62.0483 33.1737 61.6296L33.6361 60.8385L33.6752 52.433C33.7142 44.1258 33.7113 42.0315 33.4222 41.7971C33.0581 41.5017 32.3991 41.4912 31.967 41.7748C31.6779 41.96 31.6274 44.1282 31.5537 45.0564L31.4684 46.1358L29.753 45.1291C26.2603 43.1008 22.974 40.8484 19.9259 38.3936C15.0485 34.5166 11.9963 31.262 9.78374 27.5772C5.76619 20.8862 6.38761 14.8797 11.557 10.493C15.8072 6.88554 22.335 5.78386 28.1243 7.69773C29.8975 8.28373 31.3672 9.08421 32.9092 10.3066C33.7084 10.9395 34.4743 11.5067 34.6058 11.5653C35.129 11.7997 35.4455 11.6603 36.5582 10.7262C37.715 9.73118 39.054 8.88679 40.5281 8.22279C41.664 7.71883 41.8533 7.55709 41.8533 7.09767C41.8533 6.61363 41.4357 6.27727 40.8244 6.27727C39.9789 6.27727 37.645 7.44927 36.0134 8.70448L35.0134 9.46979L34.0119 8.70448C31.8803 7.07423 29.0868 5.89168 26.0534 5.32443C24.6255 5.06425 21.2381 4.94705 19.9143 5.11933Z" stroke="#F3F6F4" mask="url(#path-1-outside-1_218_5229)"/>
<path d="M31.5898 39.9121H31.3398V40.1621V45.6016V45.8516H31.5898H33.6506H33.9006V45.6016V40.1621V39.9121H33.6506H31.5898Z" fill="#F3F6F4" stroke="#F3F6F4" stroke-width="0.5"/>
<path d="M36.507 11.2003L36.3395 11.0848L34.7976 10.0217L34.5446 9.84737L34.7667 9.63515C36.2852 8.18426 39.6075 5.65206 44.8235 4.93373L44.8235 4.93373C52.3693 3.89512 57.9515 7.56428 59.0006 8.3125L59.2515 8.49144L59.0247 8.70005L57.6864 9.93076L57.5369 10.0683L57.3717 9.95005C56.4814 9.31293 51.676 6.15713 45.23 7.0442L36.507 11.2003ZM36.507 11.2003L36.6541 11.0598M36.507 11.2003L36.6541 11.0598M36.6541 11.0598C37.9453 9.82632 40.7794 7.65971 45.2299 7.04422L36.6541 11.0598Z" fill="#F3F6F4" stroke="#F3F6F4" stroke-width="0.5"/>
</svg>
