<svg width="60" height="60" viewBox="0 0 60 60" fill="none" xmlns="http://www.w3.org/2000/svg">
<path d="M38.0998 55.675H37.7748C26.6748 55.675 21.3248 51.3 20.3998 41.5C20.2998 40.475 21.0498 39.55 22.0998 39.45C23.0998 39.35 24.0498 40.125 24.1498 41.15C24.8748 49 28.5748 51.925 37.7998 51.925H38.1248C48.2998 51.925 51.8998 48.325 51.8998 38.15V21.85C51.8998 11.675 48.2998 8.07501 38.1248 8.07501H37.7998C28.5248 8.07501 24.8248 11.05 24.1498 19.05C24.0248 20.075 23.1498 20.85 22.0998 20.75C21.0498 20.675 20.2998 19.75 20.3748 18.725C21.2248 8.77501 26.5998 4.32501 37.7748 4.32501H38.0998C50.3748 4.32501 55.6248 9.57501 55.6248 21.85V38.15C55.6248 50.425 50.3748 55.675 38.0998 55.675Z" fill="white"/>
<path d="M37.4998 31.875H9.0498C8.0248 31.875 7.1748 31.025 7.1748 30C7.1748 28.975 8.0248 28.125 9.0498 28.125H37.4998C38.5248 28.125 39.3748 28.975 39.3748 30C39.3748 31.025 38.5248 31.875 37.4998 31.875Z" fill="white"/>
<path d="M14.6251 40.25C14.1501 40.25 13.6751 40.075 13.3001 39.7L4.9251 31.325C4.2001 30.6 4.2001 29.4 4.9251 28.675L13.3001 20.3C14.0251 19.575 15.2251 19.575 15.9501 20.3C16.6751 21.025 16.6751 22.225 15.9501 22.95L8.9001 30L15.9501 37.05C16.6751 37.775 16.6751 38.975 15.9501 39.7C15.6001 40.075 15.1001 40.25 14.6251 40.25Z" fill="white"/>
</svg>
