<svg id="SvgjsSvg1013" width="288" height="288" xmlns="http://www.w3.org/2000/svg" version="1.1" xmlns:xlink="http://www.w3.org/1999/xlink" xmlns:svgjs="http://svgjs.com/svgjs"><defs id="SvgjsDefs1014"></defs><g id="SvgjsG1015"><svg xmlns="http://www.w3.org/2000/svg" width="288" height="288" viewBox="0 0 512 512"><path d="M255.988 32C160.473 32 78.934 91.804 46.727 176h34.639c9.396-20.484 22.457-39.35 38.868-55.762C156.497 83.973 204.709 64 255.988 64c51.286 0 99.504 19.973 135.771 56.239C428.027 156.505 448 204.719 448 256c0 51.285-19.973 99.501-56.239 135.765C355.494 428.029 307.275 448 255.988 448c-51.281 0-99.493-19.971-135.755-56.234-16.412-16.412-29.473-35.28-38.871-55.766H46.725c32.206 84.201 113.746 144 209.264 144C379.703 480 480 379.715 480 256c0-123.702-100.297-224-224.012-224z" fill="#ffffff" class="color000 svgShape"></path><path d="M206.863 323.883l22.627 22.627L320 256l-90.51-90.51-22.628 22.628L258.745 240H32v32h226.745z" fill="#ffffff" class="color000 svgShape"></path></svg></g></svg>