<svg width="70" height="70" viewBox="0 0 70 70" fill="none" xmlns="http://www.w3.org/2000/svg">
<path d="M37.5666 60.8415H19.8624C9.50825 60.8415 5.83325 53.579 5.83325 46.8124V23.1874C5.83325 13.0957 9.77075 9.1582 19.8624 9.1582H37.5666C47.6583 9.1582 51.5958 13.0957 51.5958 23.1874V46.8124C51.5958 56.904 47.6583 60.8415 37.5666 60.8415ZM19.8624 13.5915C12.2499 13.5915 10.2666 15.5749 10.2666 23.1874V46.8124C10.2666 50.3999 11.5208 56.4082 19.8624 56.4082H37.5666C45.1791 56.4082 47.1624 54.4249 47.1624 46.8124V23.1874C47.1624 15.5749 45.1791 13.5915 37.5666 13.5915H19.8624Z" fill="#F3F6F4"/>
<path d="M60.6081 52.8208C59.3539 52.8208 57.7497 52.4124 55.9122 51.1291L48.1247 45.6749C47.5414 45.2666 47.1914 44.5958 47.1914 43.8666V26.1333C47.1914 25.4041 47.5414 24.7333 48.1247 24.3249L55.9122 18.8708C59.3831 16.4499 61.9206 17.1499 63.1164 17.7624C64.3122 18.4041 66.3539 20.0666 66.3539 24.2958V45.6749C66.3539 49.9041 64.3122 51.5958 63.1164 52.2083C62.5622 52.5291 61.6872 52.8208 60.6081 52.8208ZM51.5956 42.6999L58.4497 47.4833C59.7622 48.3874 60.6956 48.4749 61.0747 48.2708C61.4831 48.0666 61.9206 47.2499 61.9206 45.6749V24.3249C61.9206 22.7208 61.4539 21.9333 61.0747 21.7291C60.6956 21.5249 59.7622 21.6124 58.4497 22.5166L51.5956 27.2999V42.6999Z" fill="#F3F6F4"/>
<path d="M33.5417 34.2715C29.9251 34.2715 26.9792 31.3257 26.9792 27.709C26.9792 24.0923 29.9251 21.1465 33.5417 21.1465C37.1584 21.1465 40.1042 24.0923 40.1042 27.709C40.1042 31.3257 37.1584 34.2715 33.5417 34.2715ZM33.5417 25.5215C32.3459 25.5215 31.3542 26.5132 31.3542 27.709C31.3542 28.9048 32.3459 29.8965 33.5417 29.8965C34.7376 29.8965 35.7292 28.9048 35.7292 27.709C35.7292 26.5132 34.7376 25.5215 33.5417 25.5215Z" fill="#F3F6F4"/>
</svg>
