<?xml version="1.0" encoding="utf-8"?>
<!-- Generator: Adobe Illustrator 26.0.2, SVG Export Plug-In . SVG Version: 6.00 Build 0)  -->
<svg version="1.1" id="Layer_1" xmlns="http://www.w3.org/2000/svg" xmlns:xlink="http://www.w3.org/1999/xlink" x="0px" y="0px"
	 viewBox="0 0 841.89 595.28" style="enable-background:new 0 0 841.89 595.28;" xml:space="preserve">
<style type="text/css">
	.st0{fill:#91A792;}
	.st1{fill:#91A792;stroke:#FFFFFF;stroke-width:5.5506;stroke-miterlimit:10;}
	.st2{fill:none;stroke:#FFFFFF;stroke-width:5.5506;stroke-miterlimit:10;}
</style>
<g>
	<path class="st0" d="M343.69,296.93l-0.03-13.41l-6.58,11.05h-2.33l-6.54-10.76v13.12h-4.85v-22.35h4.28l8.36,13.89l8.24-13.89
		h4.25l0.06,22.35H343.69z"/>
	<path class="st0" d="M370.82,292.78v4.15h-17.3v-22.35h16.89v4.15h-11.75v4.85h10.38v4.02h-10.38v5.17H370.82z"/>
	<path class="st0" d="M395.6,296.93l-0.03-13.41l-6.58,11.05h-2.33l-6.54-10.76v13.12h-4.85v-22.35h4.28l8.36,13.89l8.24-13.89h4.25
		l0.06,22.35H395.6z"/>
	<path class="st0" d="M410.62,295.81c-1.86-1-3.32-2.38-4.37-4.13c-1.05-1.76-1.58-3.73-1.58-5.92c0-2.19,0.53-4.17,1.58-5.92
		s2.51-3.13,4.37-4.13c1.86-1,3.95-1.5,6.27-1.5s4.41,0.5,6.26,1.5c1.85,1,3.31,2.38,4.37,4.13c1.06,1.76,1.6,3.73,1.6,5.92
		c0,2.19-0.53,4.17-1.6,5.92c-1.06,1.75-2.52,3.13-4.37,4.13c-1.85,1-3.94,1.5-6.26,1.5S412.48,296.81,410.62,295.81z M420.46,292
		c1.06-0.61,1.9-1.45,2.51-2.54c0.61-1.09,0.91-2.32,0.91-3.7c0-1.38-0.3-2.62-0.91-3.7c-0.61-1.09-1.44-1.93-2.51-2.54
		s-2.26-0.91-3.58-0.91s-2.51,0.3-3.58,0.91c-1.06,0.61-1.9,1.45-2.51,2.54c-0.61,1.08-0.91,2.32-0.91,3.7c0,1.38,0.3,2.62,0.91,3.7
		c0.61,1.08,1.44,1.93,2.51,2.54c1.06,0.61,2.26,0.91,3.58,0.91S419.4,292.6,420.46,292z"/>
	<path class="st0" d="M447.57,296.93l-4.31-6.23H443h-4.5v6.23h-5.17v-22.35H443c1.98,0,3.7,0.33,5.16,0.99
		c1.46,0.66,2.58,1.6,3.37,2.81c0.79,1.21,1.18,2.65,1.18,4.31s-0.4,3.09-1.2,4.29c-0.8,1.2-1.93,2.12-3.4,2.76l5.01,7.18H447.57z
		 M446.26,279.8c-0.81-0.67-1.99-1.01-3.54-1.01h-4.21v7.79h4.21c1.55,0,2.73-0.34,3.54-1.02c0.81-0.68,1.21-1.64,1.21-2.87
		C447.47,281.44,447.07,280.47,446.26,279.8z"/>
	<path class="st0" d="M457.11,274.58h5.17v22.35h-5.17V274.58z"/>
	<path class="st0" d="M470.12,296.59c-1.65-0.48-2.97-1.1-3.97-1.87l1.76-3.89c0.96,0.7,2.1,1.27,3.42,1.69s2.64,0.64,3.96,0.64
		c1.47,0,2.55-0.22,3.26-0.66c0.7-0.44,1.05-1.02,1.05-1.74c0-0.53-0.21-0.97-0.62-1.33c-0.42-0.35-0.95-0.63-1.6-0.85
		c-0.65-0.21-1.53-0.45-2.63-0.7c-1.7-0.4-3.1-0.81-4.18-1.21c-1.09-0.4-2.02-1.05-2.79-1.95c-0.78-0.89-1.17-2.08-1.17-3.58
		c0-1.3,0.35-2.47,1.05-3.53s1.76-1.89,3.18-2.51s3.14-0.93,5.19-0.93c1.43,0,2.82,0.17,4.18,0.51c1.36,0.34,2.55,0.83,3.58,1.47
		l-1.6,3.93c-2.06-1.17-4.13-1.76-6.19-1.76c-1.45,0-2.52,0.24-3.21,0.7s-1.04,1.08-1.04,1.85c0,0.77,0.4,1.34,1.2,1.71
		s2.02,0.74,3.66,1.1c1.7,0.41,3.1,0.81,4.18,1.21c1.09,0.4,2.02,1.04,2.79,1.92c0.78,0.87,1.17,2.05,1.17,3.54
		c0,1.28-0.36,2.44-1.07,3.5c-0.71,1.05-1.78,1.89-3.21,2.51s-3.16,0.93-5.2,0.93C473.48,297.31,471.77,297.07,470.12,296.59z"/>
	<path class="st0" d="M503.94,292.14h-10.38l-1.98,4.79h-5.3l9.96-22.35h5.11l9.99,22.35h-5.43L503.94,292.14z M502.32,288.21
		l-3.54-8.56l-3.54,8.56H502.32z"/>
	<path class="st0" d="M517.35,278.8h-7.15v-4.21h19.47v4.21h-7.15v18.13h-5.17V278.8z"/>
	<path class="st0" d="M533.41,274.58h5.17v22.35h-5.17V274.58z"/>
	<path class="st0" d="M548.75,295.81c-1.86-1-3.32-2.38-4.37-4.13c-1.05-1.76-1.58-3.73-1.58-5.92c0-2.19,0.53-4.17,1.58-5.92
		s2.51-3.13,4.37-4.13c1.86-1,3.95-1.5,6.27-1.5s4.41,0.5,6.26,1.5c1.85,1,3.31,2.38,4.37,4.13c1.06,1.76,1.6,3.73,1.6,5.92
		c0,2.19-0.53,4.17-1.6,5.92c-1.06,1.75-2.52,3.13-4.37,4.13s-3.94,1.5-6.26,1.5S550.61,296.81,548.75,295.81z M558.6,292
		c1.06-0.61,1.9-1.45,2.51-2.54c0.61-1.09,0.91-2.32,0.91-3.7c0-1.38-0.3-2.62-0.91-3.7c-0.61-1.09-1.44-1.93-2.51-2.54
		s-2.26-0.91-3.58-0.91s-2.51,0.3-3.58,0.91c-1.06,0.61-1.9,1.45-2.51,2.54c-0.61,1.08-0.91,2.32-0.91,3.7c0,1.38,0.3,2.62,0.91,3.7
		c0.61,1.08,1.44,1.93,2.51,2.54c1.06,0.61,2.26,0.91,3.58,0.91S557.53,292.6,558.6,292z"/>
	<path class="st0" d="M591.96,274.58v22.35h-4.25l-11.14-13.57v13.57h-5.11v-22.35h4.28l11.11,13.57v-13.57H591.96z"/>
</g>
<g>
	<path class="st0" d="M339.14,308.42l-3.17,9.4h-1.05l-2.75-8.02l-2.77,8.02h-1.03l-3.17-9.4h1.02l2.71,8.08l2.81-8.08h0.93
		l2.77,8.12l2.75-8.12H339.14z"/>
	<path class="st0" d="M349.57,308.42v9.4h-0.98v-4.34h-5.88v4.34h-0.99v-9.4h0.99v4.19h5.88v-4.19H349.57z"/>
	<path class="st0" d="M359.84,316.96v0.86h-6.65v-9.4h6.44v0.86h-5.45v3.34h4.86v0.85h-4.86v3.49H359.84z"/>
	<path class="st0" d="M369.16,317.82l-2.15-3.02c-0.24,0.03-0.49,0.04-0.75,0.04h-2.52v2.98h-0.99v-9.4h3.52
		c1.2,0,2.14,0.29,2.82,0.86c0.68,0.57,1.02,1.36,1.02,2.36c0,0.73-0.19,1.35-0.56,1.86c-0.37,0.51-0.9,0.87-1.59,1.09l2.3,3.22
		H369.16z M368.37,313.37c0.49-0.41,0.74-0.99,0.74-1.73c0-0.76-0.25-1.34-0.74-1.75s-1.2-0.61-2.13-0.61h-2.5v4.71h2.5
		C367.17,313.99,367.88,313.78,368.37,313.37z"/>
	<path class="st0" d="M379.66,316.96v0.86h-6.65v-9.4h6.44v0.86h-5.45v3.34h4.86v0.85h-4.86v3.49H379.66z"/>
	<path class="st0" d="M386.64,308.42h0.99v8.54h5.26v0.86h-6.26V308.42z"/>
	<path class="st0" d="M396.69,317.27c-0.76-0.42-1.35-0.99-1.77-1.71c-0.42-0.72-0.64-1.54-0.64-2.44s0.21-1.72,0.64-2.44
		c0.42-0.73,1.02-1.3,1.77-1.71c0.76-0.42,1.6-0.62,2.53-0.62c0.93,0,1.77,0.21,2.52,0.62c0.75,0.41,1.34,0.98,1.76,1.71
		c0.43,0.73,0.64,1.55,0.64,2.45s-0.21,1.72-0.64,2.45c-0.43,0.73-1.02,1.3-1.76,1.71c-0.75,0.41-1.59,0.62-2.52,0.62
		C398.29,317.9,397.45,317.69,396.69,317.27z M401.24,316.51c0.6-0.33,1.07-0.8,1.41-1.4c0.34-0.6,0.51-1.26,0.51-1.99
		s-0.17-1.4-0.51-1.99c-0.34-0.59-0.81-1.06-1.41-1.4c-0.6-0.33-1.27-0.5-2.01-0.5c-0.74,0-1.42,0.17-2.02,0.5
		c-0.6,0.34-1.08,0.8-1.42,1.4c-0.34,0.6-0.52,1.26-0.52,1.99s0.17,1.4,0.52,1.99c0.34,0.59,0.82,1.06,1.42,1.4
		c0.6,0.34,1.28,0.5,2.02,0.5C399.97,317.01,400.64,316.84,401.24,316.51z"/>
	<path class="st0" d="M414.76,308.42l-4.16,9.4h-0.98l-4.16-9.4h1.07l3.6,8.16l3.62-8.16H414.76z"/>
	<path class="st0" d="M423.52,316.96v0.86h-6.65v-9.4h6.44v0.86h-5.45v3.34h4.86v0.85h-4.86v3.49H423.52z"/>
	<path class="st0" d="M426.42,308.42h3.83c0.99,0,1.87,0.2,2.63,0.6c0.76,0.4,1.35,0.95,1.77,1.66c0.42,0.71,0.63,1.52,0.63,2.44
		s-0.21,1.73-0.63,2.44c-0.42,0.71-1.01,1.27-1.77,1.67c-0.76,0.4-1.64,0.6-2.63,0.6h-3.83V308.42z M430.2,316.96
		c0.82,0,1.54-0.16,2.16-0.49c0.62-0.33,1.1-0.78,1.44-1.36c0.34-0.58,0.51-1.24,0.51-1.99s-0.17-1.42-0.51-1.99
		c-0.34-0.58-0.82-1.03-1.44-1.36c-0.62-0.33-1.34-0.49-2.16-0.49h-2.78v7.68H430.2z"/>
	<path class="st0" d="M443.74,317.27c-0.76-0.42-1.35-0.99-1.77-1.71c-0.42-0.72-0.64-1.54-0.64-2.44s0.21-1.72,0.64-2.44
		c0.42-0.73,1.02-1.3,1.77-1.71c0.76-0.42,1.6-0.62,2.53-0.62c0.93,0,1.77,0.21,2.52,0.62c0.75,0.41,1.34,0.98,1.76,1.71
		c0.43,0.73,0.64,1.55,0.64,2.45s-0.21,1.72-0.64,2.45c-0.43,0.73-1.02,1.3-1.76,1.71c-0.75,0.41-1.59,0.62-2.52,0.62
		C445.34,317.9,444.49,317.69,443.74,317.27z M448.28,316.51c0.6-0.33,1.07-0.8,1.41-1.4c0.34-0.6,0.51-1.26,0.51-1.99
		s-0.17-1.4-0.51-1.99c-0.34-0.59-0.81-1.06-1.41-1.4c-0.6-0.33-1.27-0.5-2.01-0.5c-0.74,0-1.42,0.17-2.02,0.5
		c-0.6,0.34-1.08,0.8-1.42,1.4c-0.34,0.6-0.52,1.26-0.52,1.99s0.17,1.4,0.52,1.99c0.34,0.59,0.82,1.06,1.42,1.4
		c0.6,0.34,1.28,0.5,2.02,0.5C447.01,317.01,447.68,316.84,448.28,316.51z"/>
	<path class="st0" d="M461.84,308.42v9.4h-0.82l-6.04-7.63v7.63h-0.99v-9.4h0.82l6.06,7.63v-7.63H461.84z"/>
	<path class="st0" d="M472.12,316.96v0.86h-6.65v-9.4h6.45v0.86h-5.45v3.34h4.86v0.85h-4.86v3.49H472.12z"/>
	<path class="st0" d="M475.6,317.56c-0.64-0.22-1.13-0.52-1.48-0.89l0.39-0.76c0.34,0.34,0.79,0.62,1.36,0.83
		c0.56,0.21,1.15,0.32,1.75,0.32c0.84,0,1.47-0.15,1.89-0.46c0.42-0.31,0.63-0.71,0.63-1.2c0-0.38-0.11-0.68-0.34-0.9
		s-0.51-0.4-0.84-0.52s-0.79-0.25-1.38-0.4c-0.71-0.18-1.27-0.35-1.69-0.52s-0.78-0.42-1.08-0.76c-0.3-0.34-0.45-0.8-0.45-1.38
		c0-0.47,0.12-0.91,0.38-1.3c0.25-0.39,0.64-0.7,1.15-0.93c0.52-0.23,1.16-0.35,1.93-0.35c0.54,0,1.06,0.07,1.58,0.22
		c0.51,0.15,0.96,0.35,1.34,0.61l-0.34,0.79c-0.39-0.26-0.81-0.45-1.26-0.58c-0.45-0.13-0.89-0.2-1.32-0.2
		c-0.82,0-1.44,0.16-1.86,0.48c-0.42,0.32-0.62,0.73-0.62,1.23c0,0.38,0.11,0.68,0.34,0.91c0.23,0.23,0.51,0.4,0.86,0.52
		s0.81,0.25,1.39,0.4c0.69,0.17,1.25,0.34,1.67,0.5c0.42,0.17,0.79,0.42,1.08,0.75c0.29,0.34,0.44,0.79,0.44,1.36
		c0,0.47-0.13,0.91-0.38,1.3c-0.26,0.39-0.65,0.7-1.17,0.93c-0.53,0.23-1.18,0.34-1.95,0.34
		C476.91,317.9,476.24,317.79,475.6,317.56z"/>
	<path class="st0" d="M487.92,308.42h0.99v8.54h5.26v0.86h-6.26V308.42z"/>
	<path class="st0" d="M496.39,308.42h0.99v9.4h-0.99V308.42z"/>
	<path class="st0" d="M508.82,308.42l-4.16,9.4h-0.98l-4.16-9.4h1.07l3.6,8.16l3.62-8.16H508.82z"/>
	<path class="st0" d="M517.59,316.96v0.86h-6.65v-9.4h6.45v0.86h-5.45v3.34h4.86v0.85h-4.86v3.49H517.59z"/>
	<path class="st0" d="M525.57,309.28v3.69h4.86v0.86h-4.86v3.99h-0.99v-9.4h6.45v0.86H525.57z"/>
	<path class="st0" d="M535.21,317.27c-0.76-0.42-1.35-0.99-1.77-1.71c-0.42-0.72-0.64-1.54-0.64-2.44s0.21-1.72,0.64-2.44
		c0.42-0.73,1.02-1.3,1.77-1.71c0.76-0.42,1.6-0.62,2.53-0.62c0.93,0,1.77,0.21,2.52,0.62c0.75,0.41,1.34,0.98,1.76,1.71
		c0.43,0.73,0.64,1.55,0.64,2.45s-0.21,1.72-0.64,2.45c-0.43,0.73-1.02,1.3-1.76,1.71c-0.75,0.41-1.59,0.62-2.52,0.62
		C536.81,317.9,535.97,317.69,535.21,317.27z M539.76,316.51c0.6-0.33,1.07-0.8,1.41-1.4c0.34-0.6,0.51-1.26,0.51-1.99
		s-0.17-1.4-0.51-1.99c-0.34-0.59-0.81-1.06-1.41-1.4c-0.6-0.33-1.27-0.5-2.01-0.5c-0.74,0-1.42,0.17-2.02,0.5
		c-0.6,0.34-1.08,0.8-1.42,1.4c-0.34,0.6-0.52,1.26-0.52,1.99s0.17,1.4,0.52,1.99c0.34,0.59,0.82,1.06,1.42,1.4
		c0.6,0.34,1.28,0.5,2.02,0.5C538.49,317.01,539.16,316.84,539.76,316.51z"/>
	<path class="st0" d="M551.88,317.82l-2.15-3.02c-0.24,0.03-0.49,0.04-0.75,0.04h-2.52v2.98h-0.99v-9.4h3.52
		c1.2,0,2.14,0.29,2.82,0.86c0.68,0.57,1.02,1.36,1.02,2.36c0,0.73-0.19,1.35-0.56,1.86s-0.9,0.87-1.59,1.09l2.3,3.22H551.88z
		 M551.09,313.37c0.49-0.41,0.74-0.99,0.74-1.73c0-0.76-0.25-1.34-0.74-1.75s-1.2-0.61-2.13-0.61h-2.5v4.71h2.5
		C549.89,313.99,550.6,313.78,551.09,313.37z"/>
	<path class="st0" d="M562.38,316.96v0.86h-6.65v-9.4h6.45v0.86h-5.45v3.34h4.86v0.85h-4.86v3.49H562.38z"/>
	<path class="st0" d="M573.1,308.42l-4.16,9.4h-0.98l-4.16-9.4h1.07l3.6,8.16l3.62-8.16H573.1z"/>
	<path class="st0" d="M581.86,316.96v0.86h-6.65v-9.4h6.45v0.86h-5.45v3.34h4.86v0.85h-4.86v3.49H581.86z"/>
	<path class="st0" d="M591.18,317.82l-2.15-3.02c-0.24,0.03-0.49,0.04-0.75,0.04h-2.52v2.98h-0.99v-9.4h3.52
		c1.2,0,2.14,0.29,2.82,0.86c0.68,0.57,1.02,1.36,1.02,2.36c0,0.73-0.19,1.35-0.56,1.86s-0.9,0.87-1.59,1.09l2.3,3.22H591.18z
		 M590.39,313.37c0.49-0.41,0.74-0.99,0.74-1.73c0-0.76-0.25-1.34-0.74-1.75s-1.2-0.61-2.13-0.61h-2.5v4.71h2.5
		C589.19,313.99,589.9,313.78,590.39,313.37z"/>
</g>
<polygon class="st0" points="273.54,321.94 263.45,321.94 249.87,300.05 249.87,327.57 230.66,327.57 230.66,265.02 247.99,265.02 
	268.37,298.35 288.21,265.02 306.34,265.02 "/>
<g>
	<g>
		<path class="st1" d="M301.66,280.08c-0.5-5.32-4.43-8.83-4.43-8.83s-3.92,3.51-4.43,8.83c-0.5,5.32,4.43,6.49,4.43,6.49
			S302.16,285.4,301.66,280.08z M297.23,285.58c-4.8-4.31,0-9.57,0-9.57S302.03,281.27,297.23,285.58z"/>
	</g>
</g>
<g>
	<path class="st0" d="M305.01,325.59c0,1.09-0.89,1.98-1.98,1.98h-11.49c-1.09,0-1.98-0.89-1.98-1.98V290.8
		c0-1.09,0.89-1.98,1.98-1.98h11.49c1.09,0,1.98,0.89,1.98,1.98V325.59z"/>
	<path class="st2" d="M305.01,325.59c0,1.09-0.89,1.98-1.98,1.98h-11.49c-1.09,0-1.98-0.89-1.98-1.98V290.8
		c0-1.09,0.89-1.98,1.98-1.98h11.49c1.09,0,1.98,0.89,1.98,1.98V325.59z"/>
</g>
<g>
	<g>
		<path class="st0" d="M301.66,280.08c-0.5-5.32-4.43-8.83-4.43-8.83s-3.92,3.51-4.43,8.83c-0.5,5.32,4.43,6.49,4.43,6.49
			S302.16,285.4,301.66,280.08z M297.23,285.58c-4.8-4.31,0-9.57,0-9.57S302.03,281.27,297.23,285.58z"/>
	</g>
</g>
<g>
	<path class="st0" d="M305.01,325.59c0,1.09-0.89,1.98-1.98,1.98h-11.49c-1.09,0-1.98-0.89-1.98-1.98V290.8
		c0-1.09,0.89-1.98,1.98-1.98h11.49c1.09,0,1.98,0.89,1.98,1.98V325.59z"/>
</g>
</svg>
