<svg width="50" height="44" viewBox="0 0 50 44" fill="none" xmlns="http://www.w3.org/2000/svg">
<path d="M49.94 44H40.58L36.86 4.76L22.88 41.24H22.64L6.5 6.8L4.94 24.86C4.74 27.34 4.64 29.76 4.64 32.12C4.64 36.64 5.02 40.6 5.78 44H0.8C2.12 38.92 3.1 32.54 3.74 24.86L5.48 4.58L3.56 0.499999V0.319997H13.76L26.66 28.16L37.34 0.319997H45.86L49.94 44Z" fill="#AF937A"/>
<path d="M49.94 44V46H52.1355L51.9313 43.814L49.94 44ZM40.58 44L38.5889 44.1888L38.7606 46H40.58V44ZM36.86 4.76L38.8511 4.57124L34.9924 4.0443L36.86 4.76ZM22.88 41.24V43.24H24.2554L24.7476 41.9557L22.88 41.24ZM22.64 41.24L20.829 42.0887L21.3686 43.24H22.64V41.24ZM6.5 6.8L8.31099 5.95129L5.14872 -0.796448L4.50742 6.62788L6.5 6.8ZM4.94 24.86L2.94739 24.6879L2.94647 24.6992L4.94 24.86ZM5.78 44V46H8.27642L7.73183 43.5637L5.78 44ZM0.8 44L-1.13572 43.497L-1.7861 46H0.8V44ZM3.74 24.86L1.74732 24.689L1.74691 24.6939L3.74 24.86ZM5.48 4.58L7.47268 4.75097L7.51866 4.21507L7.28964 3.7284L5.48 4.58ZM3.56 0.499998H1.56V0.947071L1.75036 1.35159L3.56 0.499998ZM3.56 0.319998V-1.68H1.56V0.319998H3.56ZM13.76 0.319998L15.5747 -0.520845L15.0375 -1.68H13.76V0.319998ZM26.66 28.16L24.8453 29.0008L26.8335 33.2916L28.5273 28.8763L26.66 28.16ZM37.34 0.319998V-1.68H35.9651L35.4727 -0.396343L37.34 0.319998ZM45.86 0.319998L47.8513 0.133993L47.6819 -1.68H45.86V0.319998ZM49.94 42H40.58V46H49.94V42ZM42.5711 43.8112L38.8511 4.57124L34.8689 4.94875L38.5889 44.1888L42.5711 43.8112ZM34.9924 4.0443L21.0124 40.5243L24.7476 41.9557L38.7276 5.47569L34.9924 4.0443ZM22.88 39.24H22.64V43.24H22.88V39.24ZM24.451 40.3913L8.31099 5.95129L4.68901 7.64871L20.829 42.0887L24.451 40.3913ZM4.50742 6.62788L2.94742 24.6879L6.93258 25.0321L8.49258 6.97212L4.50742 6.62788ZM2.94647 24.6992C2.74239 27.2298 2.64 29.7035 2.64 32.12H6.64C6.64 29.8165 6.73761 27.4502 6.93353 25.0208L2.94647 24.6992ZM2.64 32.12C2.64 36.7459 3.02833 40.8581 3.82817 44.4363L7.73183 43.5637C7.01167 40.3419 6.64 36.5341 6.64 32.12H2.64ZM5.78 42H0.8V46H5.78V42ZM2.73572 44.503C4.09433 39.2744 5.08757 32.7723 5.73309 25.0261L1.74691 24.6939C1.11243 32.3077 0.14567 38.5656 -1.13572 43.497L2.73572 44.503ZM5.73268 25.031L7.47268 4.75097L3.48732 4.40903L1.74732 24.689L5.73268 25.031ZM7.28964 3.7284L5.36964 -0.351595L1.75036 1.35159L3.67036 5.43159L7.28964 3.7284ZM5.56 0.499998V0.319998H1.56V0.499998H5.56ZM3.56 2.32H13.76V-1.68H3.56V2.32ZM11.9453 1.16084L24.8453 29.0008L28.4747 27.3192L15.5747 -0.520845L11.9453 1.16084ZM28.5273 28.8763L39.2073 1.03634L35.4727 -0.396343L24.7927 27.4437L28.5273 28.8763ZM37.34 2.32H45.86V-1.68H37.34V2.32ZM43.8687 0.506001L47.9487 44.186L51.9313 43.814L47.8513 0.133993L43.8687 0.506001Z" fill="white"/>
</svg>
