<svg width="60" height="60" viewBox="0 0 60 60" fill="none" xmlns="http://www.w3.org/2000/svg">
<path d="M30 31.875C22.075 31.875 15.625 25.425 15.625 17.5C15.625 9.575 22.075 3.125 30 3.125C37.925 3.125 44.375 9.575 44.375 17.5C44.375 25.425 37.925 31.875 30 31.875ZM30 6.875C24.15 6.875 19.375 11.65 19.375 17.5C19.375 23.35 24.15 28.125 30 28.125C35.85 28.125 40.625 23.35 40.625 17.5C40.625 11.65 35.85 6.875 30 6.875Z" fill="white"/>
<path d="M39.5499 56.875C38.5999 56.875 37.6999 56.5249 37.0499 55.8749C36.2749 55.0999 35.9249 53.975 36.0999 52.8L36.5749 49.425C36.6999 48.55 37.2249 47.525 37.8499 46.875L46.6999 38.0251C50.2499 34.4751 53.3749 36.5001 54.8999 38.0251C56.1999 39.3251 56.8749 40.7249 56.8749 42.1249C56.8749 43.5499 56.2249 44.8749 54.8999 46.1999L46.0498 55.05C45.4248 55.675 44.3749 56.2001 43.4999 56.3251L40.1249 56.7999C39.9249 56.8499 39.7499 56.875 39.5499 56.875ZM50.7749 39.8C50.3249 39.8 49.9249 40.1 49.3499 40.675L40.4999 49.525C40.4249 49.6 40.2999 49.8499 40.2999 49.9499L39.8499 53.0749L42.9749 52.625C43.0749 52.6 43.3248 52.4751 43.3998 52.4001L52.2499 43.55C52.6499 43.15 53.1249 42.5749 53.1249 42.1249C53.1249 41.7499 52.8249 41.225 52.2499 40.675C51.6499 40.075 51.1999 39.8 50.7749 39.8Z" fill="white"/>
<path d="M52.3005 48.0499C52.1255 48.0499 51.9505 48.025 51.8005 47.975C48.5005 47.05 45.8755 44.425 44.9505 41.125C44.6755 40.125 45.2505 39.1001 46.2505 38.8251C47.2505 38.5501 48.2755 39.125 48.5505 40.125C49.1255 42.175 50.7505 43.8 52.8005 44.375C53.8005 44.65 54.3756 45.6999 54.1006 46.6749C53.8756 47.4999 53.1255 48.0499 52.3005 48.0499Z" fill="white"/>
<path d="M8.52539 56.875C7.50039 56.875 6.65039 56.025 6.65039 55C6.65039 44.325 17.1255 35.625 30.0005 35.625C32.7255 35.625 35.4254 36.0251 37.9504 36.7751C38.9504 37.0751 39.5004 38.125 39.2004 39.1C38.9004 40.1 37.8505 40.65 36.8755 40.35C34.6755 39.7 32.3755 39.35 30.0005 39.35C19.2005 39.35 10.4004 46.35 10.4004 54.975C10.4004 56.025 9.55039 56.875 8.52539 56.875Z" fill="white"/>
</svg>
