<svg width="60" height="60" viewBox="0 0 60 60" fill="none" xmlns="http://www.w3.org/2000/svg">
<path d="M30.0502 51.325C24.2252 51.325 18.4002 50.4 12.8752 48.55C10.7752 47.825 9.17516 46.35 8.47516 44.425C7.75016 42.5 8.00016 40.375 9.15016 38.475L12.0252 33.7C12.6252 32.7 13.1752 30.7 13.1752 29.525V22.3C13.1752 13 20.7502 5.425 30.0502 5.425C39.3502 5.425 46.9252 13 46.9252 22.3V29.525C46.9252 30.675 47.4752 32.7 48.0752 33.725L50.9252 38.475C52.0002 40.275 52.2002 42.45 51.4752 44.425C50.7502 46.4 49.1752 47.9 47.2002 48.55C41.7002 50.4 35.8752 51.325 30.0502 51.325ZM30.0502 9.175C22.8252 9.175 16.9252 15.05 16.9252 22.3V29.525C16.9252 31.35 16.1752 34.05 15.2502 35.625L12.3752 40.4C11.8252 41.325 11.6752 42.3 12.0002 43.125C12.3002 43.975 13.0502 44.625 14.0752 44.975C24.5252 48.475 35.6002 48.475 46.0502 44.975C46.9502 44.675 47.6502 44 47.9752 43.1C48.3002 42.2 48.2252 41.225 47.7252 40.4L44.8502 35.625C43.9002 34 43.1752 31.325 43.1752 29.5V22.3C43.1752 15.05 37.3002 9.175 30.0502 9.175Z" fill="white"/>
<path d="M34.7 9.85C34.525 9.85 34.35 9.825 34.175 9.775C33.45 9.575 32.75 9.425 32.075 9.325C29.95 9.05 27.9 9.2 25.975 9.775C25.275 10 24.525 9.775 24.05 9.25C23.575 8.725 23.425 7.975 23.7 7.3C24.725 4.675 27.225 2.95 30.075 2.95C32.925 2.95 35.425 4.65 36.45 7.3C36.7 7.975 36.575 8.725 36.1 9.25C35.725 9.65 35.2 9.85 34.7 9.85Z" fill="white"/>
<path d="M30.0498 57.025C27.5748 57.025 25.1748 56.025 23.4248 54.275C21.6748 52.525 20.6748 50.125 20.6748 47.65H24.4248C24.4248 49.125 25.0248 50.575 26.0748 51.625C27.1248 52.675 28.5748 53.275 30.0498 53.275C33.1498 53.275 35.6748 50.75 35.6748 47.65H39.4248C39.4248 52.825 35.2248 57.025 30.0498 57.025Z" fill="white"/>
</svg>
