<svg width="60" height="60" viewBox="0 0 60 60" fill="none" xmlns="http://www.w3.org/2000/svg">
<path d="M41.25 21.575C40.225 21.575 39.375 20.725 39.375 19.7V16.25C39.375 13.625 38.25 11.075 36.3 9.3C34.325 7.5 31.775 6.675 29.075 6.925C24.575 7.35 20.625 11.95 20.625 16.75V19.175C20.625 20.2 19.775 21.05 18.75 21.05C17.725 21.05 16.875 20.2 16.875 19.175V16.725C16.875 10 22.3 3.8 28.725 3.175C32.475 2.825 36.075 4 38.825 6.525C41.55 9 43.125 12.55 43.125 16.25V19.7C43.125 20.725 42.275 21.575 41.25 21.575Z" fill="white"/>
<path d="M37.5 56.875H22.5C10.95 56.875 8.80003 51.5 8.25003 46.275L6.37503 31.3C6.10003 28.6 6.00003 24.725 8.62503 21.825C10.875 19.325 14.6 18.125 20 18.125H40C45.425 18.125 49.15 19.35 51.375 21.825C53.975 24.725 53.9 28.6 53.625 31.25L51.75 46.275C51.2 51.5 49.05 56.875 37.5 56.875ZM20 21.875C15.775 21.875 12.875 22.7 11.4 24.35C10.175 25.7 9.77503 27.775 10.1 30.875L11.975 45.85C12.4 49.85 13.5 53.15 22.5 53.15H37.5C46.5 53.15 47.6 49.875 48.025 45.9L49.9 30.875C50.225 27.825 49.825 25.75 48.6 24.375C47.125 22.7 44.225 21.875 40 21.875H20Z" fill="white"/>
<path d="M38.5499 32.875C37.1499 32.875 36.0249 31.75 36.0249 30.375C36.0249 29 37.1499 27.875 38.5249 27.875C39.8999 27.875 41.0249 29 41.0249 30.375C41.0249 31.75 39.9249 32.875 38.5499 32.875Z" fill="white"/>
<path d="M21.0499 32.875C19.6499 32.875 18.5249 31.75 18.5249 30.375C18.5249 29 19.6499 27.875 21.0249 27.875C22.3999 27.875 23.5249 29 23.5249 30.375C23.5249 31.75 22.4249 32.875 21.0499 32.875Z" fill="white"/>
</svg>
