<svg width="60" height="60" viewBox="0 0 60 60" fill="none" xmlns="http://www.w3.org/2000/svg">
<path d="M5 24.375C3.975 24.375 3.125 23.525 3.125 22.5V16.25C3.125 9 9.025 3.125 16.25 3.125H22.5C23.525 3.125 24.375 3.975 24.375 5C24.375 6.025 23.525 6.875 22.5 6.875H16.25C11.075 6.875 6.875 11.075 6.875 16.25V22.5C6.875 23.525 6.025 24.375 5 24.375Z" fill="white"/>
<path d="M55 24.375C53.975 24.375 53.125 23.525 53.125 22.5V16.25C53.125 11.075 48.925 6.875 43.75 6.875H37.5C36.475 6.875 35.625 6.025 35.625 5C35.625 3.975 36.475 3.125 37.5 3.125H43.75C50.975 3.125 56.875 9 56.875 16.25V22.5C56.875 23.525 56.025 24.375 55 24.375Z" fill="white"/>
<path d="M43.75 56.875H40C38.975 56.875 38.125 56.025 38.125 55C38.125 53.975 38.975 53.125 40 53.125H43.75C48.925 53.125 53.125 48.925 53.125 43.75V40C53.125 38.975 53.975 38.125 55 38.125C56.025 38.125 56.875 38.975 56.875 40V43.75C56.875 51 50.975 56.875 43.75 56.875Z" fill="white"/>
<path d="M22.5 56.875H16.25C9.025 56.875 3.125 51 3.125 43.75V37.5C3.125 36.475 3.975 35.625 5 35.625C6.025 35.625 6.875 36.475 6.875 37.5V43.75C6.875 48.925 11.075 53.125 16.25 53.125H22.5C23.525 53.125 24.375 53.975 24.375 55C24.375 56.025 23.525 56.875 22.5 56.875Z" fill="white"/>
<path d="M22.5 28.125H17.5C13.975 28.125 11.875 26.025 11.875 22.5V17.5C11.875 13.975 13.975 11.875 17.5 11.875H22.5C26.025 11.875 28.125 13.975 28.125 17.5V22.5C28.125 26.025 26.025 28.125 22.5 28.125ZM17.5 15.625C16.025 15.625 15.625 16.025 15.625 17.5V22.5C15.625 23.975 16.025 24.375 17.5 24.375H22.5C23.975 24.375 24.375 23.975 24.375 22.5V17.5C24.375 16.025 23.975 15.625 22.5 15.625H17.5Z" fill="white"/>
<path d="M42.5 28.125H37.5C33.975 28.125 31.875 26.025 31.875 22.5V17.5C31.875 13.975 33.975 11.875 37.5 11.875H42.5C46.025 11.875 48.125 13.975 48.125 17.5V22.5C48.125 26.025 46.025 28.125 42.5 28.125ZM37.5 15.625C36.025 15.625 35.625 16.025 35.625 17.5V22.5C35.625 23.975 36.025 24.375 37.5 24.375H42.5C43.975 24.375 44.375 23.975 44.375 22.5V17.5C44.375 16.025 43.975 15.625 42.5 15.625H37.5Z" fill="white"/>
<path d="M22.5 48.125H17.5C13.975 48.125 11.875 46.025 11.875 42.5V37.5C11.875 33.975 13.975 31.875 17.5 31.875H22.5C26.025 31.875 28.125 33.975 28.125 37.5V42.5C28.125 46.025 26.025 48.125 22.5 48.125ZM17.5 35.625C16.025 35.625 15.625 36.025 15.625 37.5V42.5C15.625 43.975 16.025 44.375 17.5 44.375H22.5C23.975 44.375 24.375 43.975 24.375 42.5V37.5C24.375 36.025 23.975 35.625 22.5 35.625H17.5Z" fill="white"/>
<path d="M42.5 48.125H37.5C33.975 48.125 31.875 46.025 31.875 42.5V37.5C31.875 33.975 33.975 31.875 37.5 31.875H42.5C46.025 31.875 48.125 33.975 48.125 37.5V42.5C48.125 46.025 46.025 48.125 42.5 48.125ZM37.5 35.625C36.025 35.625 35.625 36.025 35.625 37.5V42.5C35.625 43.975 36.025 44.375 37.5 44.375H42.5C43.975 44.375 44.375 43.975 44.375 42.5V37.5C44.375 36.025 43.975 35.625 42.5 35.625H37.5Z" fill="white"/>
</svg>
