<svg width="70" height="70" viewBox="0 0 70 70" fill="none" xmlns="http://www.w3.org/2000/svg">
<path d="M35 66.3549C32.9583 66.3549 30.8875 65.5675 29.3417 64.0216L24.3542 59.0924C23.1292 57.8675 21.4375 57.1965 19.7167 57.1965H17.5C11.4625 57.1965 6.5625 52.3258 6.5625 46.3466V14.5257C6.5625 8.54653 11.4625 3.67578 17.5 3.67578H52.5C58.5375 3.67578 63.4375 8.54653 63.4375 14.5257V46.3466C63.4375 52.3258 58.5375 57.1965 52.5 57.1965H50.2833C48.5625 57.1965 46.8708 57.8966 45.6458 59.0924L40.6583 64.0216C39.1125 65.5675 37.0417 66.3549 35 66.3549ZM17.5 8.02159C13.8833 8.02159 10.9375 10.9382 10.9375 14.4965V46.3174C10.9375 49.9049 13.8833 52.7924 17.5 52.7924H19.7167C22.6042 52.7924 25.4042 53.9591 27.4458 55.9716L32.4333 60.9008C33.8625 62.3008 36.1667 62.3008 37.5959 60.9008L42.5834 55.9716C44.625 53.9591 47.425 52.7924 50.3125 52.7924H52.5C56.1167 52.7924 59.0625 49.8758 59.0625 46.3174V14.4965C59.0625 10.909 56.1167 8.02159 52.5 8.02159H17.5Z" fill="#F3F6F4"/>
<path d="M34.9994 45.9368C34.4744 45.9368 33.9494 45.8493 33.4827 45.7035C29.6327 44.391 19.7161 38.5869 19.7161 27.7369C19.7161 22.4869 23.9744 18.2285 29.1952 18.2285C31.3244 18.2285 33.3661 18.9577 35.0286 20.241C36.6911 18.9577 38.7327 18.2285 40.8619 18.2285C46.0827 18.2285 50.3411 22.4869 50.3411 27.7369C50.3411 38.5869 40.3952 44.391 36.5744 45.7035C36.0494 45.8493 35.5244 45.9368 34.9994 45.9368ZM29.166 22.6035C26.366 22.6035 24.0619 24.9077 24.0619 27.7369C24.0619 35.991 32.0827 40.5993 34.8827 41.5618C34.9118 41.5618 35.0286 41.5618 35.1161 41.5618C37.9452 40.5702 45.9077 35.9619 45.9077 27.7661C45.9077 24.9369 43.6327 22.6327 40.8035 22.6327C39.1993 22.6327 37.7119 23.3911 36.7202 24.6744C35.9035 25.7827 34.0369 25.7827 33.2202 24.6744C32.2869 23.3619 30.7994 22.6035 29.166 22.6035Z" fill="#F3F6F4"/>
</svg>
