<svg width="70" height="70" viewBox="0 0 70 70" fill="none" xmlns="http://www.w3.org/2000/svg">
<path d="M44.4501 66.3548H25.5501C20.0376 66.3548 16.0126 64.0507 14.4667 60.084C12.8626 55.9423 14.3501 50.809 18.2001 47.3382L31.7334 35.0007L18.2001 22.6632C14.3501 19.1923 12.8626 14.059 14.4667 9.91732C16.0126 5.92148 20.0376 3.64648 25.5501 3.64648H44.4501C49.9626 3.64648 53.9876 5.95065 55.5334 9.91732C57.1376 14.059 55.6501 19.1923 51.8001 22.6632L38.2667 35.0007L51.8292 47.3382C55.6501 50.809 57.1667 55.9423 55.5626 60.084C53.9876 64.0507 49.9626 66.3548 44.4501 66.3548ZM35.0001 37.9465L21.1459 50.5465C18.6959 52.7923 17.6167 56.059 18.5501 58.4798C19.4251 60.7257 21.9042 61.9798 25.5501 61.9798H44.4501C48.0959 61.9798 50.5751 60.7548 51.4501 58.4798C52.3834 56.059 51.3334 52.7923 48.8542 50.5465L35.0001 37.9465ZM25.5501 8.02148C21.9042 8.02148 19.4251 9.24649 18.5501 11.5215C17.6167 13.9423 18.6667 17.209 21.1459 19.4548L35.0001 32.0548L48.8542 19.4548C51.3042 17.209 52.3834 13.9423 51.4501 11.5215C50.5751 9.27565 48.0959 8.02148 44.4501 8.02148H25.5501Z" fill="#F3F6F4"/>
</svg>
